<?xml version="1.0" encoding="UTF-8" standalone="no"?>
<!DOCTYPE svg PUBLIC "-//W3C//DTD SVG 1.1//EN"
 "http://www.w3.org/Graphics/SVG/1.1/DTD/svg11.dtd">
<!-- Generated by graphviz version 12.2.1 (0)
 -->
<!-- Title: pastafarianism Pages: 1 -->
<svg width="484pt" height="213pt"
 viewBox="0.00 0.00 484.12 213.00" xmlns="http://www.w3.org/2000/svg" xmlns:xlink="http://www.w3.org/1999/xlink">
<g id="graph0" class="graph" transform="scale(1 1) rotate(0) translate(4 209)">
<title>pastafarianism</title>
<polygon fill="white" stroke="none" points="-4,4 -4,-209 480.12,-209 480.12,4 -4,4"/>
<!-- Robocup Controller -->
<g id="node1" class="node">
<title>Robocup Controller</title>
<polygon fill="gold" stroke="black" points="300.8,-205 124.74,-205 79.45,-144 255.51,-144 300.8,-205"/>
<text text-anchor="middle" x="190.12" y="-177.2" font-family="Times,serif" font-size="9.00">Robocup Controller</text>
<text text-anchor="middle" x="190.12" y="-165.95" font-family="Times,serif" font-size="9.00">SuccessOnAll</text>
</g>
<!-- Velocity Control -->
<g id="node2" class="node">
<title>Velocity Control</title>
<ellipse fill="gray" stroke="black" cx="61.12" cy="-90" rx="53.4" ry="18"/>
<text text-anchor="middle" x="61.12" y="-87.08" font-family="Times,serif" font-size="9.00">Velocity Control</text>
</g>
<!-- Robocup Controller&#45;&gt;Velocity Control -->
<g id="edge1" class="edge">
<title>Robocup Controller&#45;&gt;Velocity Control</title>
<path fill="none" stroke="black" d="M143.55,-143.72C127.33,-133.34 109.47,-121.92 94.53,-112.36"/>
<polygon fill="black" stroke="black" points="96.77,-109.64 86.46,-107.2 92.99,-115.54 96.77,-109.64"/>
</g>
<!-- Vision Processing -->
<g id="node3" class="node">
<title>Vision Processing</title>
<ellipse fill="gray" stroke="black" cx="190.12" cy="-90" rx="57.39" ry="18"/>
<text text-anchor="middle" x="190.12" y="-87.08" font-family="Times,serif" font-size="9.00">Vision Processing</text>
</g>
<!-- Robocup Controller&#45;&gt;Vision Processing -->
<g id="edge2" class="edge">
<title>Robocup Controller&#45;&gt;Vision Processing</title>
<path fill="none" stroke="black" d="M190.12,-143.72C190.12,-135.96 190.12,-127.62 190.12,-119.91"/>
<polygon fill="black" stroke="black" points="193.63,-120.01 190.13,-110.01 186.63,-120.01 193.63,-120.01"/>
</g>
<!-- Localisation -->
<g id="node4" class="node">
<title>Localisation</title>
<ellipse fill="gray" stroke="black" cx="308.12" cy="-90" rx="42.31" ry="18"/>
<text text-anchor="middle" x="308.12" y="-87.08" font-family="Times,serif" font-size="9.00">Localisation</text>
</g>
<!-- Robocup Controller&#45;&gt;Localisation -->
<g id="edge3" class="edge">
<title>Robocup Controller&#45;&gt;Localisation</title>
<path fill="none" stroke="black" d="M232.73,-143.72C247.49,-133.39 263.75,-122.02 277.38,-112.5"/>
<polygon fill="black" stroke="black" points="279.34,-115.39 285.53,-106.8 275.33,-109.66 279.34,-115.39"/>
</g>
<!-- /odom -->
<g id="node8" class="node">
<title>/odom</title>
<polygon fill="white" stroke="blue" points="324.25,-26.88 252,-26.88 252,-9.12 324.25,-9.12 324.25,-26.88"/>
<text text-anchor="middle" x="288.12" y="-15.28" font-family="Times,serif" font-size="8.00" fill="blue">/odom: [0 0 0]</text>
</g>
<!-- Velocity Control&#45;&gt;/odom -->
<g id="edge8" class="edge">
<title>Velocity Control&#45;&gt;/odom</title>
<path fill="none" stroke="blue" d="M99.63,-77.13C141.69,-64.16 208.62,-43.52 250.38,-30.64"/>
<polygon fill="blue" stroke="blue" points="251.22,-34.04 259.75,-27.75 249.16,-27.35 251.22,-34.04"/>
</g>
<!-- /vel -->
<g id="node9" class="node">
<title>/vel</title>
<polygon fill="white" stroke="blue" points="404,-26.88 342.25,-26.88 342.25,-9.12 404,-9.12 404,-26.88"/>
<text text-anchor="middle" x="373.12" y="-15.28" font-family="Times,serif" font-size="8.00" fill="blue">/vel: [0 0 0]</text>
</g>
<!-- Velocity Control&#45;&gt;/vel -->
<g id="edge9" class="edge">
<title>Velocity Control&#45;&gt;/vel</title>
<path fill="none" stroke="blue" d="M100.98,-77.65C108.63,-75.64 116.6,-73.66 124.12,-72 216.17,-51.7 242.7,-62.61 333.12,-36 337.2,-34.8 341.42,-33.31 345.52,-31.7"/>
<polygon fill="blue" stroke="blue" points="346.66,-35.02 354.53,-27.93 343.95,-28.57 346.66,-35.02"/>
</g>
<!-- /posetree -->
<g id="node5" class="node">
<title>/posetree</title>
<polygon fill="white" stroke="blue" points="214.62,-26.88 153.62,-26.88 153.62,-9.12 214.62,-9.12 214.62,-26.88"/>
<text text-anchor="middle" x="184.12" y="-15.28" font-family="Times,serif" font-size="8.00" fill="blue">/posetree: &#45;</text>
</g>
<!-- Localisation&#45;&gt;/posetree -->
<g id="edge4" class="edge">
<title>Localisation&#45;&gt;/posetree</title>
<path fill="none" stroke="blue" d="M283.33,-75C261.59,-62.73 230.15,-44.98 208.53,-32.78"/>
<polygon fill="blue" stroke="blue" points="210.53,-29.89 200.1,-28.02 207.09,-35.98 210.53,-29.89"/>
</g>
<!-- /target_vel -->
<g id="node6" class="node">
<title>/target_vel</title>
<polygon fill="white" stroke="blue" points="96.25,-26.88 0,-26.88 0,-9.12 96.25,-9.12 96.25,-26.88"/>
<text text-anchor="middle" x="48.12" y="-15.28" font-family="Times,serif" font-size="8.00" fill="blue">/target_vel: [0. 0. 0.]</text>
</g>
<!-- /target_vel&#45;&gt;Velocity Control -->
<g id="edge5" class="edge">
<title>/target_vel&#45;&gt;Velocity Control</title>
<path fill="none" stroke="green" d="M49.62,-27.05C51.14,-35.26 53.6,-48.48 55.85,-60.61"/>
<polygon fill="green" stroke="green" points="52.37,-61.02 57.64,-70.21 59.25,-59.74 52.37,-61.02"/>
</g>
<!-- Global -->
<g id="node7" class="node">
<title>Global</title>
<ellipse fill="gray" stroke="blue" cx="449.12" cy="-18" rx="27" ry="18"/>
<text text-anchor="middle" x="449.12" y="-15.85" font-family="Times,serif" font-size="7.00" fill="blue">Global</text>
</g>
<!-- Global&#45;&gt;/target_vel -->
<g id="edge6" class="edge">
<title>Global&#45;&gt;/target_vel</title>
<path fill="none" stroke="blue" d="M434.91,-33.57C426.76,-41.32 415.83,-49.89 404.12,-54 351.7,-72.39 208.94,-63.05 154.12,-54 128.12,-49.7 99.92,-39.86 79.14,-31.54"/>
<polygon fill="blue" stroke="blue" points="80.7,-28.4 70.12,-27.83 78.03,-34.87 80.7,-28.4"/>
</g>
<!-- /odom&#45;&gt;Localisation -->
<g id="edge7" class="edge">
<title>/odom&#45;&gt;Localisation</title>
<path fill="none" stroke="green" d="M290.42,-27.05C292.79,-35.34 296.63,-48.75 300.12,-60.98"/>
<polygon fill="green" stroke="green" points="296.65,-61.59 302.77,-70.24 303.38,-59.66 296.65,-61.59"/>
</g>
</g>
</svg>
