<?xml version="1.0" encoding="UTF-8" standalone="no"?>
<!DOCTYPE svg PUBLIC "-//W3C//DTD SVG 1.1//EN"
 "http://www.w3.org/Graphics/SVG/1.1/DTD/svg11.dtd">
<!-- Generated by graphviz version 12.2.1 (0)
 -->
<!-- Title: pastafarianism Pages: 1 -->
<svg width="368pt" height="195pt"
 viewBox="0.00 0.00 368.43 194.75" xmlns="http://www.w3.org/2000/svg" xmlns:xlink="http://www.w3.org/1999/xlink">
<g id="graph0" class="graph" transform="scale(1 1) rotate(0) translate(4 190.75)">
<title>pastafarianism</title>
<polygon fill="white" stroke="none" points="-4,4 -4,-190.75 364.43,-190.75 364.43,4 -4,4"/>
<!-- Robocup Controller -->
<g id="node1" class="node">
<title>Robocup Controller</title>
<polygon fill="gold" stroke="black" points="310.8,-186.75 134.74,-186.75 89.45,-125.75 265.51,-125.75 310.8,-186.75"/>
<text text-anchor="middle" x="200.12" y="-158.95" font-family="Times,serif" font-size="9.00">Robocup Controller</text>
<text text-anchor="middle" x="200.12" y="-147.7" font-family="Times,serif" font-size="9.00">SuccessOnAll</text>
</g>
<!-- Velocity Control -->
<g id="node2" class="node">
<title>Velocity Control</title>
<ellipse fill="gray" stroke="black" cx="71.12" cy="-71.75" rx="53.4" ry="18"/>
<text text-anchor="middle" x="71.12" y="-68.83" font-family="Times,serif" font-size="9.00">Velocity Control</text>
</g>
<!-- Robocup Controller&#45;&gt;Velocity Control -->
<g id="edge1" class="edge">
<title>Robocup Controller&#45;&gt;Velocity Control</title>
<path fill="none" stroke="black" d="M153.55,-125.47C137.33,-115.09 119.47,-103.67 104.53,-94.11"/>
<polygon fill="black" stroke="black" points="106.77,-91.39 96.46,-88.95 102.99,-97.29 106.77,-91.39"/>
</g>
<!-- Vision Processing -->
<g id="node3" class="node">
<title>Vision Processing</title>
<ellipse fill="gray" stroke="black" cx="200.12" cy="-71.75" rx="57.39" ry="18"/>
<text text-anchor="middle" x="200.12" y="-68.83" font-family="Times,serif" font-size="9.00">Vision Processing</text>
</g>
<!-- Robocup Controller&#45;&gt;Vision Processing -->
<g id="edge2" class="edge">
<title>Robocup Controller&#45;&gt;Vision Processing</title>
<path fill="none" stroke="black" d="M200.12,-125.47C200.12,-117.71 200.12,-109.37 200.12,-101.66"/>
<polygon fill="black" stroke="black" points="203.63,-101.76 200.13,-91.76 196.63,-101.76 203.63,-101.76"/>
</g>
<!-- Localisation -->
<g id="node4" class="node">
<title>Localisation</title>
<ellipse fill="gray" stroke="black" cx="318.12" cy="-71.75" rx="42.31" ry="18"/>
<text text-anchor="middle" x="318.12" y="-68.83" font-family="Times,serif" font-size="9.00">Localisation</text>
</g>
<!-- Robocup Controller&#45;&gt;Localisation -->
<g id="edge3" class="edge">
<title>Robocup Controller&#45;&gt;Localisation</title>
<path fill="none" stroke="black" d="M242.73,-125.47C257.49,-115.14 273.75,-103.77 287.38,-94.25"/>
<polygon fill="black" stroke="black" points="289.34,-97.14 295.53,-88.55 285.33,-91.41 289.34,-97.14"/>
</g>
<!-- /odom -->
<g id="node6" class="node">
<title>/odom</title>
<polygon fill="white" stroke="blue" points="133.62,-17.75 84.62,-17.75 84.62,0 133.62,0 133.62,-17.75"/>
<text text-anchor="middle" x="109.12" y="-6.15" font-family="Times,serif" font-size="8.00" fill="blue">/odom: &#45;</text>
</g>
<!-- Velocity Control&#45;&gt;/odom -->
<g id="edge5" class="edge">
<title>Velocity Control&#45;&gt;/odom</title>
<path fill="none" stroke="blue" d="M81.71,-53.79C86.78,-45.67 92.85,-35.95 97.99,-27.71"/>
<polygon fill="blue" stroke="blue" points="100.92,-29.63 103.24,-19.3 94.98,-25.93 100.92,-29.63"/>
</g>
<!-- /target_vel -->
<g id="node5" class="node">
<title>/target_vel</title>
<polygon fill="white" stroke="blue" points="66.25,-17.75 0,-17.75 0,0 66.25,0 66.25,-17.75"/>
<text text-anchor="middle" x="33.12" y="-6.15" font-family="Times,serif" font-size="8.00" fill="blue">/target_vel: &#45;</text>
</g>
<!-- /target_vel&#45;&gt;Velocity Control -->
<g id="edge4" class="edge">
<title>/target_vel&#45;&gt;Velocity Control</title>
<path fill="none" stroke="green" d="M38.2,-18.01C42.42,-24.77 48.67,-34.77 54.59,-44.26"/>
<polygon fill="green" stroke="green" points="51.47,-45.88 59.74,-52.51 57.41,-42.17 51.47,-45.88"/>
</g>
</g>
</svg>
