<?xml version="1.0" encoding="UTF-8" standalone="no"?>
<!DOCTYPE svg PUBLIC "-//W3C//DTD SVG 1.1//EN"
 "http://www.w3.org/Graphics/SVG/1.1/DTD/svg11.dtd">
<!-- Generated by graphviz version 12.2.1 (0)
 -->
<!-- Title: pastafarianism Pages: 1 -->
<svg width="447pt" height="213pt"
 viewBox="0.00 0.00 447.40 213.00" xmlns="http://www.w3.org/2000/svg" xmlns:xlink="http://www.w3.org/1999/xlink">
<g id="graph0" class="graph" transform="scale(1 1) rotate(0) translate(4 209)">
<title>pastafarianism</title>
<polygon fill="white" stroke="none" points="-4,4 -4,-209 443.4,-209 443.4,4 -4,4"/>
<!-- Robocup Controller -->
<g id="node1" class="node">
<title>Robocup Controller</title>
<polygon fill="gold" stroke="black" points="293.07,-205 117.02,-205 71.73,-144 247.78,-144 293.07,-205"/>
<text text-anchor="middle" x="182.4" y="-177.2" font-family="Times,serif" font-size="9.00">Robocup Controller</text>
<text text-anchor="middle" x="182.4" y="-165.95" font-family="Times,serif" font-size="9.00">SuccessOnAll</text>
</g>
<!-- Velocity Control -->
<g id="node2" class="node">
<title>Velocity Control</title>
<ellipse fill="gray" stroke="black" cx="53.4" cy="-90" rx="53.4" ry="18"/>
<text text-anchor="middle" x="53.4" y="-87.08" font-family="Times,serif" font-size="9.00">Velocity Control</text>
</g>
<!-- Robocup Controller&#45;&gt;Velocity Control -->
<g id="edge1" class="edge">
<title>Robocup Controller&#45;&gt;Velocity Control</title>
<path fill="none" stroke="black" d="M135.83,-143.72C119.61,-133.34 101.74,-121.92 86.8,-112.36"/>
<polygon fill="black" stroke="black" points="89.04,-109.64 78.73,-107.2 85.27,-115.54 89.04,-109.64"/>
</g>
<!-- Vision Processing -->
<g id="node3" class="node">
<title>Vision Processing</title>
<ellipse fill="gray" stroke="black" cx="182.4" cy="-90" rx="57.39" ry="18"/>
<text text-anchor="middle" x="182.4" y="-87.08" font-family="Times,serif" font-size="9.00">Vision Processing</text>
</g>
<!-- Robocup Controller&#45;&gt;Vision Processing -->
<g id="edge2" class="edge">
<title>Robocup Controller&#45;&gt;Vision Processing</title>
<path fill="none" stroke="black" d="M182.4,-143.72C182.4,-135.96 182.4,-127.62 182.4,-119.91"/>
<polygon fill="black" stroke="black" points="185.9,-120.01 182.4,-110.01 178.9,-120.01 185.9,-120.01"/>
</g>
<!-- Localisation -->
<g id="node4" class="node">
<title>Localisation</title>
<ellipse fill="gray" stroke="black" cx="300.4" cy="-90" rx="42.31" ry="18"/>
<text text-anchor="middle" x="300.4" y="-87.08" font-family="Times,serif" font-size="9.00">Localisation</text>
</g>
<!-- Robocup Controller&#45;&gt;Localisation -->
<g id="edge3" class="edge">
<title>Robocup Controller&#45;&gt;Localisation</title>
<path fill="none" stroke="black" d="M225,-143.72C239.77,-133.39 256.03,-122.02 269.65,-112.5"/>
<polygon fill="black" stroke="black" points="271.62,-115.39 277.81,-106.8 267.61,-109.66 271.62,-115.39"/>
</g>
<!-- /odom -->
<g id="node7" class="node">
<title>/odom</title>
<polygon fill="white" stroke="blue" points="287.53,-26.88 215.28,-26.88 215.28,-9.12 287.53,-9.12 287.53,-26.88"/>
<text text-anchor="middle" x="251.4" y="-15.28" font-family="Times,serif" font-size="8.00" fill="blue">/odom: [0 0 0]</text>
</g>
<!-- Velocity Control&#45;&gt;/odom -->
<g id="edge7" class="edge">
<title>Velocity Control&#45;&gt;/odom</title>
<path fill="none" stroke="blue" d="M89.26,-76.32C125.72,-63.43 181.78,-43.61 217.52,-30.98"/>
<polygon fill="blue" stroke="blue" points="218.22,-34.44 226.48,-27.81 215.89,-27.84 218.22,-34.44"/>
</g>
<!-- /vel -->
<g id="node8" class="node">
<title>/vel</title>
<polygon fill="white" stroke="blue" points="367.28,-26.88 305.53,-26.88 305.53,-9.12 367.28,-9.12 367.28,-26.88"/>
<text text-anchor="middle" x="336.4" y="-15.28" font-family="Times,serif" font-size="8.00" fill="blue">/vel: [0 0 0]</text>
</g>
<!-- Velocity Control&#45;&gt;/vel -->
<g id="edge8" class="edge">
<title>Velocity Control&#45;&gt;/vel</title>
<path fill="none" stroke="blue" d="M93.63,-77.72C101.17,-75.72 109.01,-73.73 116.4,-72 195.83,-53.36 218.45,-60.08 296.4,-36 300.46,-34.75 304.67,-33.22 308.77,-31.6"/>
<polygon fill="blue" stroke="blue" points="309.91,-34.92 317.77,-27.82 307.2,-28.47 309.91,-34.92"/>
</g>
<!-- /target_vel -->
<g id="node5" class="node">
<title>/target_vel</title>
<polygon fill="white" stroke="blue" points="148.53,-26.88 52.28,-26.88 52.28,-9.12 148.53,-9.12 148.53,-26.88"/>
<text text-anchor="middle" x="100.4" y="-15.28" font-family="Times,serif" font-size="8.00" fill="blue">/target_vel: [0. 0. 0.]</text>
</g>
<!-- /target_vel&#45;&gt;Velocity Control -->
<g id="edge4" class="edge">
<title>/target_vel&#45;&gt;Velocity Control</title>
<path fill="none" stroke="green" d="M94.94,-27.13C89.08,-35.85 79.48,-50.16 70.98,-62.82"/>
<polygon fill="green" stroke="green" points="68.29,-60.55 65.62,-70.8 74.1,-64.45 68.29,-60.55"/>
</g>
<!-- Global -->
<g id="node6" class="node">
<title>Global</title>
<ellipse fill="gray" stroke="blue" cx="412.4" cy="-18" rx="27" ry="18"/>
<text text-anchor="middle" x="412.4" y="-15.85" font-family="Times,serif" font-size="7.00" fill="blue">Global</text>
</g>
<!-- Global&#45;&gt;/target_vel -->
<g id="edge5" class="edge">
<title>Global&#45;&gt;/target_vel</title>
<path fill="none" stroke="blue" d="M398.18,-33.57C390.03,-41.32 379.11,-49.89 367.4,-54 303.65,-76.36 282.18,-64.21 215.4,-54 187.09,-49.67 156.18,-39.68 133.54,-31.32"/>
<polygon fill="blue" stroke="blue" points="134.83,-28.07 124.24,-27.79 132.35,-34.61 134.83,-28.07"/>
</g>
<!-- /odom&#45;&gt;Localisation -->
<g id="edge6" class="edge">
<title>/odom&#45;&gt;Localisation</title>
<path fill="none" stroke="green" d="M257.15,-27.22C263.32,-36.03 273.42,-50.46 282.31,-63.16"/>
<polygon fill="green" stroke="green" points="279.32,-64.99 287.92,-71.17 285.05,-60.97 279.32,-64.99"/>
</g>
</g>
</svg>
