<?xml version="1.0" encoding="UTF-8" standalone="no"?>
<!DOCTYPE svg PUBLIC "-//W3C//DTD SVG 1.1//EN"
 "http://www.w3.org/Graphics/SVG/1.1/DTD/svg11.dtd">
<!-- Generated by graphviz version 12.2.1 (0)
 -->
<!-- Title: pastafarianism Pages: 1 -->
<svg width="396pt" height="213pt"
 viewBox="0.00 0.00 396.43 213.00" xmlns="http://www.w3.org/2000/svg" xmlns:xlink="http://www.w3.org/1999/xlink">
<g id="graph0" class="graph" transform="scale(1 1) rotate(0) translate(4 209)">
<title>pastafarianism</title>
<polygon fill="white" stroke="none" points="-4,4 -4,-209 392.43,-209 392.43,4 -4,4"/>
<!-- Robocup Controller -->
<g id="node1" class="node">
<title>Robocup Controller</title>
<polygon fill="gold" stroke="black" points="338.8,-205 162.74,-205 117.45,-144 293.51,-144 338.8,-205"/>
<text text-anchor="middle" x="228.12" y="-177.2" font-family="Times,serif" font-size="9.00">Robocup Controller</text>
<text text-anchor="middle" x="228.12" y="-165.95" font-family="Times,serif" font-size="9.00">SuccessOnAll</text>
</g>
<!-- Velocity Control -->
<g id="node2" class="node">
<title>Velocity Control</title>
<ellipse fill="gray" stroke="black" cx="99.12" cy="-90" rx="53.4" ry="18"/>
<text text-anchor="middle" x="99.12" y="-87.08" font-family="Times,serif" font-size="9.00">Velocity Control</text>
</g>
<!-- Robocup Controller&#45;&gt;Velocity Control -->
<g id="edge1" class="edge">
<title>Robocup Controller&#45;&gt;Velocity Control</title>
<path fill="none" stroke="black" d="M181.55,-143.72C165.33,-133.34 147.47,-121.92 132.53,-112.36"/>
<polygon fill="black" stroke="black" points="134.77,-109.64 124.46,-107.2 130.99,-115.54 134.77,-109.64"/>
</g>
<!-- Vision Processing -->
<g id="node3" class="node">
<title>Vision Processing</title>
<ellipse fill="gray" stroke="black" cx="228.12" cy="-90" rx="57.39" ry="18"/>
<text text-anchor="middle" x="228.12" y="-87.08" font-family="Times,serif" font-size="9.00">Vision Processing</text>
</g>
<!-- Robocup Controller&#45;&gt;Vision Processing -->
<g id="edge2" class="edge">
<title>Robocup Controller&#45;&gt;Vision Processing</title>
<path fill="none" stroke="black" d="M228.12,-143.72C228.12,-135.96 228.12,-127.62 228.12,-119.91"/>
<polygon fill="black" stroke="black" points="231.63,-120.01 228.13,-110.01 224.63,-120.01 231.63,-120.01"/>
</g>
<!-- Localisation -->
<g id="node4" class="node">
<title>Localisation</title>
<ellipse fill="gray" stroke="black" cx="346.12" cy="-90" rx="42.31" ry="18"/>
<text text-anchor="middle" x="346.12" y="-87.08" font-family="Times,serif" font-size="9.00">Localisation</text>
</g>
<!-- Robocup Controller&#45;&gt;Localisation -->
<g id="edge3" class="edge">
<title>Robocup Controller&#45;&gt;Localisation</title>
<path fill="none" stroke="black" d="M270.73,-143.72C285.49,-133.39 301.75,-122.02 315.38,-112.5"/>
<polygon fill="black" stroke="black" points="317.34,-115.39 323.53,-106.8 313.33,-109.66 317.34,-115.39"/>
</g>
<!-- /odom -->
<g id="node7" class="node">
<title>/odom</title>
<polygon fill="white" stroke="blue" points="186.25,-26.88 114,-26.88 114,-9.12 186.25,-9.12 186.25,-26.88"/>
<text text-anchor="middle" x="150.12" y="-15.28" font-family="Times,serif" font-size="8.00" fill="blue">/odom: [0 0 0]</text>
</g>
<!-- Velocity Control&#45;&gt;/odom -->
<g id="edge6" class="edge">
<title>Velocity Control&#45;&gt;/odom</title>
<path fill="none" stroke="blue" d="M111.47,-72.05C119.33,-61.26 129.5,-47.31 137.43,-36.43"/>
<polygon fill="blue" stroke="blue" points="140.25,-38.5 143.31,-28.36 134.59,-34.38 140.25,-38.5"/>
</g>
<!-- /vel -->
<g id="node8" class="node">
<title>/vel</title>
<polygon fill="white" stroke="blue" points="266,-26.88 204.25,-26.88 204.25,-9.12 266,-9.12 266,-26.88"/>
<text text-anchor="middle" x="235.12" y="-15.28" font-family="Times,serif" font-size="8.00" fill="blue">/vel: [0 0 0]</text>
</g>
<!-- Velocity Control&#45;&gt;/vel -->
<g id="edge7" class="edge">
<title>Velocity Control&#45;&gt;/vel</title>
<path fill="none" stroke="blue" d="M127.64,-74.33C151.57,-62 185.5,-44.54 208.8,-32.55"/>
<polygon fill="blue" stroke="blue" points="210.36,-35.68 217.65,-28 207.15,-29.46 210.36,-35.68"/>
</g>
<!-- /target_vel -->
<g id="node5" class="node">
<title>/target_vel</title>
<polygon fill="white" stroke="blue" points="96.25,-26.88 0,-26.88 0,-9.12 96.25,-9.12 96.25,-26.88"/>
<text text-anchor="middle" x="48.12" y="-15.28" font-family="Times,serif" font-size="8.00" fill="blue">/target_vel: [0. 0. 0.]</text>
</g>
<!-- /target_vel&#45;&gt;Velocity Control -->
<g id="edge4" class="edge">
<title>/target_vel&#45;&gt;Velocity Control</title>
<path fill="none" stroke="green" d="M54.05,-27.13C60.4,-35.85 70.83,-50.16 80.05,-62.82"/>
<polygon fill="green" stroke="green" points="77.17,-64.81 85.89,-70.83 82.83,-60.69 77.17,-64.81"/>
</g>
<!-- Global -->
<g id="node6" class="node">
<title>Global</title>
<ellipse fill="gray" stroke="blue" cx="311.12" cy="-18" rx="27" ry="18"/>
<text text-anchor="middle" x="311.12" y="-15.85" font-family="Times,serif" font-size="7.00" fill="blue">Global</text>
</g>
<!-- Global&#45;&gt;/target_vel -->
<g id="edge5" class="edge">
<title>Global&#45;&gt;/target_vel</title>
<path fill="none" stroke="blue" d="M296.91,-33.57C288.76,-41.32 277.83,-49.89 266.12,-54 202.38,-76.36 179.59,-70.69 114.12,-54 98.32,-49.97 82.21,-41.29 69.87,-33.47"/>
<polygon fill="blue" stroke="blue" points="72,-30.68 61.73,-28.05 68.12,-36.51 72,-30.68"/>
</g>
</g>
</svg>
