<?xml version="1.0" encoding="UTF-8" standalone="no"?>
<!DOCTYPE svg PUBLIC "-//W3C//DTD SVG 1.1//EN"
 "http://www.w3.org/Graphics/SVG/1.1/DTD/svg11.dtd">
<!-- Generated by graphviz version 12.2.1 (0)
 -->
<!-- Title: pastafarianism Pages: 1 -->
<svg width="488pt" height="213pt"
 viewBox="0.00 0.00 488.30 213.00" xmlns="http://www.w3.org/2000/svg" xmlns:xlink="http://www.w3.org/1999/xlink">
<g id="graph0" class="graph" transform="scale(1 1) rotate(0) translate(4 209)">
<title>pastafarianism</title>
<polygon fill="white" stroke="none" points="-4,4 -4,-209 484.3,-209 484.3,4 -4,4"/>
<!-- Robocup Controller -->
<g id="node1" class="node">
<title>Robocup Controller</title>
<polygon fill="gold" stroke="black" points="361.8,-205 185.74,-205 140.45,-144 316.51,-144 361.8,-205"/>
<text text-anchor="middle" x="251.12" y="-177.2" font-family="Times,serif" font-size="9.00">Robocup Controller</text>
<text text-anchor="middle" x="251.12" y="-165.95" font-family="Times,serif" font-size="9.00">SuccessOnAll</text>
</g>
<!-- Velocity Control -->
<g id="node2" class="node">
<title>Velocity Control</title>
<ellipse fill="gray" stroke="black" cx="63.12" cy="-90" rx="53.4" ry="18"/>
<text text-anchor="middle" x="63.12" y="-87.08" font-family="Times,serif" font-size="9.00">Velocity Control</text>
</g>
<!-- Robocup Controller&#45;&gt;Velocity Control -->
<g id="edge1" class="edge">
<title>Robocup Controller&#45;&gt;Velocity Control</title>
<path fill="none" stroke="black" d="M182.99,-143.6C156.95,-132.17 128.05,-119.49 105.14,-109.44"/>
<polygon fill="black" stroke="black" points="106.7,-106.3 96.14,-105.49 103.89,-112.71 106.7,-106.3"/>
</g>
<!-- Vision Processing -->
<g id="node3" class="node">
<title>Vision Processing</title>
<ellipse fill="gray" stroke="black" cx="192.12" cy="-90" rx="57.39" ry="18"/>
<text text-anchor="middle" x="192.12" y="-87.08" font-family="Times,serif" font-size="9.00">Vision Processing</text>
</g>
<!-- Robocup Controller&#45;&gt;Vision Processing -->
<g id="edge2" class="edge">
<title>Robocup Controller&#45;&gt;Vision Processing</title>
<path fill="none" stroke="black" d="M229.82,-143.72C223.66,-135.09 216.97,-125.74 210.96,-117.34"/>
<polygon fill="black" stroke="black" points="213.84,-115.35 205.18,-109.25 208.15,-119.42 213.84,-115.35"/>
</g>
<!-- Localisation -->
<g id="node4" class="node">
<title>Localisation</title>
<ellipse fill="gray" stroke="black" cx="310.12" cy="-90" rx="42.31" ry="18"/>
<text text-anchor="middle" x="310.12" y="-87.08" font-family="Times,serif" font-size="9.00">Localisation</text>
</g>
<!-- Robocup Controller&#45;&gt;Localisation -->
<g id="edge3" class="edge">
<title>Robocup Controller&#45;&gt;Localisation</title>
<path fill="none" stroke="black" d="M272.43,-143.72C278.76,-134.86 285.64,-125.24 291.76,-116.68"/>
<polygon fill="black" stroke="black" points="294.44,-118.95 297.41,-108.78 288.75,-114.88 294.44,-118.95"/>
</g>
<!-- Debug UI server -->
<g id="node5" class="node">
<title>Debug UI server</title>
<ellipse fill="gray" stroke="black" cx="425.12" cy="-90" rx="55.18" ry="18"/>
<text text-anchor="middle" x="425.12" y="-87.08" font-family="Times,serif" font-size="9.00">Debug UI server</text>
</g>
<!-- Robocup Controller&#45;&gt;Debug UI server -->
<g id="edge4" class="edge">
<title>Robocup Controller&#45;&gt;Debug UI server</title>
<path fill="none" stroke="black" d="M313.94,-143.72C337.59,-132.5 363.83,-120.06 384.88,-110.08"/>
<polygon fill="black" stroke="black" points="386.16,-113.35 393.7,-105.9 383.16,-107.02 386.16,-113.35"/>
</g>
<!-- /odom -->
<g id="node8" class="node">
<title>/odom</title>
<polygon fill="white" stroke="blue" points="266.25,-26.88 194,-26.88 194,-9.12 266.25,-9.12 266.25,-26.88"/>
<text text-anchor="middle" x="230.12" y="-15.28" font-family="Times,serif" font-size="8.00" fill="blue">/odom: [0 0 0]</text>
</g>
<!-- Velocity Control&#45;&gt;/odom -->
<g id="edge9" class="edge">
<title>Velocity Control&#45;&gt;/odom</title>
<path fill="none" stroke="blue" d="M95.72,-75.34C125.85,-62.71 170.29,-44.08 199.71,-31.75"/>
<polygon fill="blue" stroke="blue" points="200.92,-35.04 208.79,-27.94 198.21,-28.58 200.92,-35.04"/>
</g>
<!-- /vel -->
<g id="node9" class="node">
<title>/vel</title>
<polygon fill="white" stroke="blue" points="346,-26.88 284.25,-26.88 284.25,-9.12 346,-9.12 346,-26.88"/>
<text text-anchor="middle" x="315.12" y="-15.28" font-family="Times,serif" font-size="8.00" fill="blue">/vel: [0 0 0]</text>
</g>
<!-- Velocity Control&#45;&gt;/vel -->
<g id="edge10" class="edge">
<title>Velocity Control&#45;&gt;/vel</title>
<path fill="none" stroke="blue" d="M103.75,-77.87C111.18,-75.88 118.88,-73.85 126.12,-72 192.13,-55.12 210.44,-57.4 275.12,-36 278.97,-34.73 282.95,-33.24 286.86,-31.69"/>
<polygon fill="blue" stroke="blue" points="288.18,-34.93 296.05,-27.84 285.47,-28.48 288.18,-34.93"/>
</g>
<!-- /target_vel -->
<g id="node6" class="node">
<title>/target_vel</title>
<polygon fill="white" stroke="blue" points="96.25,-26.88 0,-26.88 0,-9.12 96.25,-9.12 96.25,-26.88"/>
<text text-anchor="middle" x="48.12" y="-15.28" font-family="Times,serif" font-size="8.00" fill="blue">/target_vel: [0. 0. 0.]</text>
</g>
<!-- Debug UI server&#45;&gt;/target_vel -->
<g id="edge7" class="edge">
<title>Debug UI server&#45;&gt;/target_vel</title>
<path fill="none" stroke="blue" d="M384.29,-77.55C376.62,-75.58 368.65,-73.63 361.12,-72 273.66,-53.02 171.21,-36.79 107.98,-27.46"/>
<polygon fill="blue" stroke="blue" points="108.55,-24.01 98.15,-26.02 107.53,-30.93 108.55,-24.01"/>
</g>
<!-- /target_vel&#45;&gt;Velocity Control -->
<g id="edge5" class="edge">
<title>/target_vel&#45;&gt;Velocity Control</title>
<path fill="none" stroke="green" d="M49.85,-27.05C51.61,-35.26 54.44,-48.48 57.04,-60.61"/>
<polygon fill="green" stroke="green" points="53.58,-61.17 59.1,-70.22 60.43,-59.71 53.58,-61.17"/>
</g>
<!-- Global -->
<g id="node7" class="node">
<title>Global</title>
<ellipse fill="gray" stroke="blue" cx="391.12" cy="-18" rx="27" ry="18"/>
<text text-anchor="middle" x="391.12" y="-15.85" font-family="Times,serif" font-size="7.00" fill="blue">Global</text>
</g>
<!-- Global&#45;&gt;/target_vel -->
<g id="edge6" class="edge">
<title>Global&#45;&gt;/target_vel</title>
<path fill="none" stroke="blue" d="M376.91,-33.57C368.76,-41.32 357.83,-49.89 346.12,-54 254.11,-86.28 137.41,-52.14 81.26,-31.43"/>
<polygon fill="blue" stroke="blue" points="82.55,-28.18 71.96,-27.9 80.07,-34.72 82.55,-28.18"/>
</g>
<!-- /odom&#45;&gt;Localisation -->
<g id="edge8" class="edge">
<title>/odom&#45;&gt;Localisation</title>
<path fill="none" stroke="green" d="M239.38,-27.09C250.17,-36.54 268.5,-52.58 283.79,-65.96"/>
<polygon fill="green" stroke="green" points="281.4,-68.52 291.23,-72.47 286.01,-63.25 281.4,-68.52"/>
</g>
</g>
</svg>
