<?xml version="1.0" encoding="UTF-8" standalone="no"?>
<!DOCTYPE svg PUBLIC "-//W3C//DTD SVG 1.1//EN"
 "http://www.w3.org/Graphics/SVG/1.1/DTD/svg11.dtd">
<!-- Generated by graphviz version 12.2.1 (0)
 -->
<!-- Title: pastafarianism Pages: 1 -->
<svg width="527pt" height="213pt"
 viewBox="0.00 0.00 527.40 213.00" xmlns="http://www.w3.org/2000/svg" xmlns:xlink="http://www.w3.org/1999/xlink">
<g id="graph0" class="graph" transform="scale(1 1) rotate(0) translate(4 209)">
<title>pastafarianism</title>
<polygon fill="white" stroke="none" points="-4,4 -4,-209 523.4,-209 523.4,4 -4,4"/>
<!-- Robocup Controller -->
<g id="node1" class="node">
<title>Robocup Controller</title>
<polygon fill="gold" stroke="black" points="352.07,-205 176.02,-205 130.73,-144 306.78,-144 352.07,-205"/>
<text text-anchor="middle" x="241.4" y="-177.2" font-family="Times,serif" font-size="9.00">Robocup Controller</text>
<text text-anchor="middle" x="241.4" y="-165.95" font-family="Times,serif" font-size="9.00">SuccessOnAll</text>
</g>
<!-- Velocity Control -->
<g id="node2" class="node">
<title>Velocity Control</title>
<ellipse fill="gray" stroke="black" cx="53.4" cy="-90" rx="53.4" ry="18"/>
<text text-anchor="middle" x="53.4" y="-87.08" font-family="Times,serif" font-size="9.00">Velocity Control</text>
</g>
<!-- Robocup Controller&#45;&gt;Velocity Control -->
<g id="edge1" class="edge">
<title>Robocup Controller&#45;&gt;Velocity Control</title>
<path fill="none" stroke="black" d="M173.26,-143.6C147.23,-132.17 118.32,-119.49 95.42,-109.44"/>
<polygon fill="black" stroke="black" points="96.98,-106.3 86.41,-105.49 94.16,-112.71 96.98,-106.3"/>
</g>
<!-- Vision Processing -->
<g id="node3" class="node">
<title>Vision Processing</title>
<ellipse fill="gray" stroke="black" cx="182.4" cy="-90" rx="57.39" ry="18"/>
<text text-anchor="middle" x="182.4" y="-87.08" font-family="Times,serif" font-size="9.00">Vision Processing</text>
</g>
<!-- Robocup Controller&#45;&gt;Vision Processing -->
<g id="edge2" class="edge">
<title>Robocup Controller&#45;&gt;Vision Processing</title>
<path fill="none" stroke="black" d="M220.1,-143.72C213.93,-135.09 207.24,-125.74 201.24,-117.34"/>
<polygon fill="black" stroke="black" points="204.12,-115.35 195.45,-109.25 198.42,-119.42 204.12,-115.35"/>
</g>
<!-- Localisation -->
<g id="node4" class="node">
<title>Localisation</title>
<ellipse fill="gray" stroke="black" cx="300.4" cy="-90" rx="42.31" ry="18"/>
<text text-anchor="middle" x="300.4" y="-87.08" font-family="Times,serif" font-size="9.00">Localisation</text>
</g>
<!-- Robocup Controller&#45;&gt;Localisation -->
<g id="edge3" class="edge">
<title>Robocup Controller&#45;&gt;Localisation</title>
<path fill="none" stroke="black" d="M262.7,-143.72C269.03,-134.86 275.91,-125.24 282.04,-116.68"/>
<polygon fill="black" stroke="black" points="284.72,-118.95 287.69,-108.78 279.02,-114.88 284.72,-118.95"/>
</g>
<!-- Debug UI server -->
<g id="node5" class="node">
<title>Debug UI server</title>
<ellipse fill="gray" stroke="black" cx="415.4" cy="-90" rx="55.18" ry="18"/>
<text text-anchor="middle" x="415.4" y="-87.08" font-family="Times,serif" font-size="9.00">Debug UI server</text>
</g>
<!-- Robocup Controller&#45;&gt;Debug UI server -->
<g id="edge4" class="edge">
<title>Robocup Controller&#45;&gt;Debug UI server</title>
<path fill="none" stroke="black" d="M304.22,-143.72C327.87,-132.5 354.11,-120.06 375.16,-110.08"/>
<polygon fill="black" stroke="black" points="376.44,-113.35 383.97,-105.9 373.44,-107.02 376.44,-113.35"/>
</g>
<!-- /odom -->
<g id="node9" class="node">
<title>/odom</title>
<polygon fill="white" stroke="blue" points="367.53,-26.88 295.28,-26.88 295.28,-9.12 367.53,-9.12 367.53,-26.88"/>
<text text-anchor="middle" x="331.4" y="-15.28" font-family="Times,serif" font-size="8.00" fill="blue">/odom: [0 0 0]</text>
</g>
<!-- Velocity Control&#45;&gt;/odom -->
<g id="edge11" class="edge">
<title>Velocity Control&#45;&gt;/odom</title>
<path fill="none" stroke="blue" d="M94.03,-77.9C101.47,-75.9 109.16,-73.87 116.4,-72 174.66,-56.96 242.05,-40.5 285.62,-29.98"/>
<polygon fill="blue" stroke="blue" points="286.34,-33.41 295.24,-27.66 284.7,-26.6 286.34,-33.41"/>
</g>
<!-- /vel -->
<g id="node10" class="node">
<title>/vel</title>
<polygon fill="white" stroke="blue" points="447.28,-26.88 385.53,-26.88 385.53,-9.12 447.28,-9.12 447.28,-26.88"/>
<text text-anchor="middle" x="416.4" y="-15.28" font-family="Times,serif" font-size="8.00" fill="blue">/vel: [0 0 0]</text>
</g>
<!-- Velocity Control&#45;&gt;/vel -->
<g id="edge12" class="edge">
<title>Velocity Control&#45;&gt;/vel</title>
<path fill="none" stroke="blue" d="M92.88,-77.53C100.63,-75.51 108.74,-73.56 116.4,-72 230.72,-48.76 263.96,-67.09 376.4,-36 380.57,-34.85 384.88,-33.36 389.06,-31.74"/>
<polygon fill="blue" stroke="blue" points="390.37,-34.99 398.23,-27.88 387.66,-28.53 390.37,-34.99"/>
</g>
<!-- /posetree -->
<g id="node6" class="node">
<title>/posetree</title>
<polygon fill="white" stroke="blue" points="90.9,-26.88 29.9,-26.88 29.9,-9.12 90.9,-9.12 90.9,-26.88"/>
<text text-anchor="middle" x="60.4" y="-15.28" font-family="Times,serif" font-size="8.00" fill="blue">/posetree: &#45;</text>
</g>
<!-- Localisation&#45;&gt;/posetree -->
<g id="edge6" class="edge">
<title>Localisation&#45;&gt;/posetree</title>
<path fill="none" stroke="blue" d="M268.07,-78C261.58,-75.92 254.8,-73.82 248.4,-72 183.29,-53.47 164.65,-57.31 100.4,-36 96.56,-34.73 92.57,-33.24 88.67,-31.69"/>
<polygon fill="blue" stroke="blue" points="90.05,-28.47 79.48,-27.83 87.35,-34.93 90.05,-28.47"/>
</g>
<!-- /target_vel -->
<g id="node7" class="node">
<title>/target_vel</title>
<polygon fill="white" stroke="blue" points="205.53,-26.88 109.28,-26.88 109.28,-9.12 205.53,-9.12 205.53,-26.88"/>
<text text-anchor="middle" x="157.4" y="-15.28" font-family="Times,serif" font-size="8.00" fill="blue">/target_vel: [0. 0. 0.]</text>
</g>
<!-- Debug UI server&#45;&gt;/target_vel -->
<g id="edge9" class="edge">
<title>Debug UI server&#45;&gt;/target_vel</title>
<path fill="none" stroke="blue" d="M373.95,-77.75C325.95,-64.73 247.33,-43.4 199.18,-30.34"/>
<polygon fill="blue" stroke="blue" points="200.25,-27 189.69,-27.76 198.42,-33.76 200.25,-27"/>
</g>
<!-- /posetree&#45;&gt;Debug UI server -->
<g id="edge5" class="edge">
<title>/posetree&#45;&gt;Debug UI server</title>
<path fill="none" stroke="green" d="M77.18,-27.28C84.21,-30.44 92.55,-33.81 100.4,-36 208.95,-66.29 240.97,-49.5 351.4,-72 355.47,-72.83 359.67,-73.76 363.87,-74.76"/>
<polygon fill="green" stroke="green" points="362.93,-78.13 373.47,-77.12 364.6,-71.33 362.93,-78.13"/>
</g>
<!-- /target_vel&#45;&gt;Velocity Control -->
<g id="edge7" class="edge">
<title>/target_vel&#45;&gt;Velocity Control</title>
<path fill="none" stroke="green" d="M145.09,-27.29C130.61,-37.03 105.99,-53.6 85.91,-67.12"/>
<polygon fill="green" stroke="green" points="84.08,-64.13 77.74,-72.62 87.99,-69.94 84.08,-64.13"/>
</g>
<!-- Global -->
<g id="node8" class="node">
<title>Global</title>
<ellipse fill="gray" stroke="blue" cx="492.4" cy="-18" rx="27" ry="18"/>
<text text-anchor="middle" x="492.4" y="-15.85" font-family="Times,serif" font-size="7.00" fill="blue">Global</text>
</g>
<!-- Global&#45;&gt;/target_vel -->
<g id="edge8" class="edge">
<title>Global&#45;&gt;/target_vel</title>
<path fill="none" stroke="blue" d="M478.18,-33.57C470.03,-41.32 459.11,-49.89 447.4,-54 357.82,-85.42 244.27,-51.68 189.64,-31.24"/>
<polygon fill="blue" stroke="blue" points="191.22,-28.1 180.63,-27.78 188.71,-34.63 191.22,-28.1"/>
</g>
<!-- /odom&#45;&gt;Localisation -->
<g id="edge10" class="edge">
<title>/odom&#45;&gt;Localisation</title>
<path fill="none" stroke="green" d="M327.8,-27.13C324.05,-35.6 317.97,-49.32 312.49,-61.69"/>
<polygon fill="green" stroke="green" points="309.37,-60.11 308.52,-70.67 315.77,-62.94 309.37,-60.11"/>
</g>
</g>
</svg>
